<svg xmlns="http://www.w3.org/2000/svg" width="24" height="24" viewBox="0 0 24 24">
    <g fill="none" fill-rule="evenodd">
        <g transform="translate(4 5)">
            <rect width="15" height="2" x=".5" y=".5" stroke="#B2B8BF" rx="1"/>
            <path fill="#B2B8BF" d="M3 2v10.004c0 .551.446.996.995.996h8.01c.54 0 .995-.446.995-.996V2h1v9.991A2.01 2.01 0 0 1 11.991 14H4.01A2.01 2.01 0 0 1 2 11.991V2h1z"/>
        </g>
        <path stroke="#B2B8BF" d="M14 5a2 2 0 1 0-4 0"/>
        <path fill="#B2B8BF" d="M10 8h1v8h-1zM13 8h1v8h-1z"/>
    </g>
</svg>
